<?xml version="1.0" encoding="utf-8"?>
<!-- Svg Vector Icons : http://www.onlinewebfonts.com/icon -->
<!DOCTYPE svg PUBLIC "-//W3C//DTD SVG 1.1//EN" "http://www.w3.org/Graphics/SVG/1.1/DTD/svg11.dtd">
<svg version="1.1" xmlns="http://www.w3.org/2000/svg" xmlns:xlink="http://www.w3.org/1999/xlink" x="0px" y="0px" viewBox="0 0 256 256" enable-background="new 0 0 256 256" xml:space="preserve">
<metadata> Svg Vector Icons : http://www.onlinewebfonts.com/icon </metadata>
<g><g><g><path fill="#ffffff" d="M154.1,16.1c-59.9,0.3-60.7,0.3-66.6,1.4c-11.7,2.2-19.1,4.5-28.1,8.8c-21.6,10.4-39.9,30.3-47.8,52c-1.3,3.7-1.6,5.2-1.6,9c-0.1,4.1,0.1,4.7,1.5,7.2c2.7,4.8,6.9,6.1,12,3.8c3.9-1.8,6.7-4.8,11.5-11.9c2.3-3.5,5.8-8.1,7.7-10.1c6.4-6.8,17.2-14.1,27.8-18.7l4.6-2h19.7c10.8,0,19.7,0.1,19.7,0.3c0,0.2-0.6,4.1-1.3,8.9c-2.8,18.8-6.8,40.6-12.2,66.8c-5.5,26.4-6.8,36.7-6.3,51.2c0.4,12.6,2.2,21.3,6.3,30c7.3,15.7,21.2,25,40.6,27.1c19.4,2.1,36-3,47.8-15c10.4-10.4,16.8-26.3,15.8-39.1c-0.7-9.9-4.7-15.3-11.3-15.3h-2.5l-0.5,2.1c-1.6,6.5-5.5,15.2-9,20.4c-2.4,3.6-7.2,8-10.2,9.4c-4.9,2.3-11.7,2.5-17.4,0.6c-18.2-6.3-28.3-27-28.3-57.7c0-21.8,4.1-45.7,13.9-80.7l2.4-8.7l28.9-0.3c28.9-0.3,28.9-0.3,34.2-1.5c7.9-1.9,13.6-4.4,20.2-8.8c5-3.3,12-10.5,15.4-15.8c1.6-2.5,3.3-5.1,3.8-5.8l0.9-1.3l-2.1-1.8c-3.8-3.2-11.2-4.8-22.1-4.6C217.9,15.8,187.5,15.9,154.1,16.1z"/></g></g></g>
</svg>
