<svg xmlns="http://www.w3.org/2000/svg" xmlns:xlink="http://www.w3.org/1999/xlink" width="500" zoomAndPan="magnify" viewBox="0 0 375 374.999991" height="500" preserveAspectRatio="xMidYMid meet" version="1.0"><defs><clipPath id="089b87429d"><path d="M 50.203125 50.203125 L 324.796875 50.203125 L 324.796875 324.796875 L 50.203125 324.796875 Z M 50.203125 50.203125 " clip-rule="nonzero"/></clipPath><clipPath id="c6967503fb"><path d="M 187.5 50.203125 C 111.671875 50.203125 50.203125 111.671875 50.203125 187.5 C 50.203125 263.328125 111.671875 324.796875 187.5 324.796875 C 263.328125 324.796875 324.796875 263.328125 324.796875 187.5 C 324.796875 111.671875 263.328125 50.203125 187.5 50.203125 Z M 187.5 50.203125 " clip-rule="nonzero"/></clipPath><clipPath id="dd902c97aa"><path d="M 0.203125 0.203125 L 274.796875 0.203125 L 274.796875 274.796875 L 0.203125 274.796875 Z M 0.203125 0.203125 " clip-rule="nonzero"/></clipPath><clipPath id="53dc377f0a"><path d="M 137.5 0.203125 C 61.671875 0.203125 0.203125 61.671875 0.203125 137.5 C 0.203125 213.328125 61.671875 274.796875 137.5 274.796875 C 213.328125 274.796875 274.796875 213.328125 274.796875 137.5 C 274.796875 61.671875 213.328125 0.203125 137.5 0.203125 Z M 137.5 0.203125 " clip-rule="nonzero"/></clipPath><clipPath id="bf85005218"><rect x="0" width="275" y="0" height="275"/></clipPath></defs><rect x="-37.5" width="450" fill="#ffffff" y="-37.499999" height="449.999989" fill-opacity="1"/><rect x="-37.5" width="450" fill="#ffffff" y="-37.499999" height="449.999989" fill-opacity="1"/><g clip-path="url(#089b87429d)"><g clip-path="url(#c6967503fb)"><g transform="matrix(1, 0, 0, 1, 50, 50)"><g clip-path="url(#bf85005218)"><g clip-path="url(#dd902c97aa)"><g clip-path="url(#53dc377f0a)"><path fill="#a4dba4" d="M 0.203125 0.203125 L 274.796875 0.203125 L 274.796875 274.796875 L 0.203125 274.796875 Z M 0.203125 0.203125 " fill-opacity="1" fill-rule="nonzero"/></g></g></g></g></g></g><path fill="#ffffff" d="M 202.398438 104.316406 C 156.242188 104.546875 155.625 104.546875 151.082031 105.394531 C 142.066406 107.089844 136.363281 108.863281 129.429688 112.175781 C 112.785156 120.1875 98.6875 135.523438 92.597656 152.242188 C 91.597656 155.09375 91.367188 156.25 91.367188 159.175781 C 91.289062 162.335938 91.445312 162.796875 92.523438 164.722656 C 94.601562 168.421875 97.839844 169.425781 101.769531 167.652344 C 104.773438 166.265625 106.929688 163.953125 110.628906 158.484375 C 112.402344 155.785156 115.097656 152.242188 116.5625 150.699219 C 121.492188 145.460938 129.816406 139.835938 137.980469 136.292969 L 141.527344 134.75 L 156.707031 134.75 C 165.027344 134.75 171.882812 134.828125 171.882812 134.984375 C 171.882812 135.136719 171.421875 138.140625 170.882812 141.839844 C 168.726562 156.324219 165.644531 173.121094 161.484375 193.308594 C 157.246094 213.652344 156.242188 221.585938 156.628906 232.761719 C 156.9375 242.46875 158.324219 249.171875 161.484375 255.875 C 167.105469 267.972656 177.816406 275.136719 192.765625 276.757812 C 207.714844 278.375 220.503906 274.445312 229.59375 265.199219 C 237.609375 257.183594 242.539062 244.933594 241.769531 235.070312 C 241.230469 227.445312 238.148438 223.28125 233.0625 223.28125 L 231.136719 223.28125 L 230.75 224.902344 C 229.519531 229.910156 226.511719 236.613281 223.816406 240.621094 C 221.96875 243.394531 218.269531 246.785156 215.957031 247.863281 C 212.183594 249.632812 206.941406 249.789062 202.550781 248.324219 C 188.527344 243.46875 180.746094 227.519531 180.746094 203.867188 C 180.746094 187.070312 183.90625 168.652344 191.457031 141.6875 L 193.304688 134.984375 L 215.570312 134.75 C 237.839844 134.519531 237.839844 134.519531 241.921875 133.597656 C 248.011719 132.132812 252.402344 130.207031 257.488281 126.816406 C 261.339844 124.273438 266.734375 118.726562 269.355469 114.640625 C 270.585938 112.714844 271.894531 110.710938 272.28125 110.171875 L 272.976562 109.171875 L 271.355469 107.785156 C 268.429688 105.316406 262.726562 104.085938 254.328125 104.238281 C 251.554688 104.085938 228.132812 104.164062 202.398438 104.316406 Z M 202.398438 104.316406 " fill-opacity="1" fill-rule="nonzero"/></svg>