<?xml version="1.0" encoding="UTF-8" standalone="no"?>
<svg
   width="256"
   zoomAndPan="magnify"
   viewBox="0 0 192 192"
   height="256"
   preserveAspectRatio="xMidYMid"
   version="1.0"
   id="svg11"
   xmlns="http://www.w3.org/2000/svg"
   xmlns:svg="http://www.w3.org/2000/svg">
  <defs
     id="defs4">
    <clipPath
       id="089b87429d">
      <path
         d="M 50.203125,50.203125 H 324.79687 V 324.79687 H 50.203125 Z m 0,0"
         clip-rule="nonzero"
         id="path1" />
    </clipPath>
    <clipPath
       id="c6967503fb">
      <path
         d="m 187.5,50.203125 c -75.82812,0 -137.296875,61.468755 -137.296875,137.296875 0,75.82812 61.468755,137.29687 137.296875,137.29687 75.82812,0 137.29687,-61.46875 137.29687,-137.29687 0,-75.82812 -61.46875,-137.296875 -137.29687,-137.296875 z m 0,0"
         clip-rule="nonzero"
         id="path2" />
    </clipPath>
    <clipPath
       id="dd902c97aa">
      <path
         d="M 0.203125,0.203125 H 274.79687 V 274.79687 H 0.203125 Z m 0,0"
         clip-rule="nonzero"
         id="path3" />
    </clipPath>
    <clipPath
       id="53dc377f0a">
      <path
         d="M 137.5,0.203125 C 61.671875,0.203125 0.203125,61.671875 0.203125,137.5 c 0,75.82812 61.46875,137.29687 137.296875,137.29687 75.82812,0 137.29687,-61.46875 137.29687,-137.29687 C 274.79687,61.671875 213.32812,0.203125 137.5,0.203125 Z m 0,0"
         clip-rule="nonzero"
         id="path4" />
    </clipPath>
    <clipPath
       id="bf85005218">
      <rect
         x="0"
         width="275"
         y="0"
         height="275"
         id="rect4" />
    </clipPath>
  </defs>
  <g
     id="g12"
     transform="matrix(0.69921474,0,0,0.69921475,-35.102764,-35.102766)">
    <g
       clip-path="url(#089b87429d)"
       id="g11">
      <g
         clip-path="url(#c6967503fb)"
         id="g10">
        <g
           transform="translate(50,50)"
           id="g9">
          <g
             clip-path="url(#bf85005218)"
             id="g8">
            <g
               clip-path="url(#dd902c97aa)"
               id="g7">
              <g
                 clip-path="url(#53dc377f0a)"
                 id="g6">
                <path
                   fill="#a4dba4"
                   d="M 0.203125,0.203125 H 274.79687 V 274.79687 H 0.203125 Z m 0,0"
                   fill-opacity="1"
                   fill-rule="nonzero"
                   id="path6" />
              </g>
            </g>
          </g>
        </g>
      </g>
    </g>
    <path
       fill="#ffffff"
       d="m 202.39844,104.31641 c -46.15625,0.23047 -46.77344,0.23047 -51.31641,1.07812 -9.01562,1.69531 -14.71875,3.46875 -21.65234,6.78125 -16.64453,8.01172 -30.74219,23.34766 -36.832034,40.06641 -1,2.85156 -1.230468,4.00781 -1.230468,6.93359 -0.07813,3.16016 0.07812,3.62109 1.15625,5.54688 2.078124,3.69921 5.316406,4.70312 9.246092,2.92968 3.00391,-1.38672 5.16016,-3.69922 8.85938,-9.16797 1.77343,-2.69921 4.46875,-6.24218 5.93359,-7.78515 4.92969,-5.23828 13.25391,-10.86328 21.41797,-14.40625 l 3.54687,-1.54297 h 15.17969 c 8.32031,0 15.17578,0.0781 15.17578,0.23437 0,0.15235 -0.46094,3.15625 -1,6.85547 -2.15625,14.48438 -5.23828,31.28125 -9.39844,51.46875 -4.23828,20.34375 -5.24218,28.27735 -4.85546,39.45313 0.30859,9.70703 1.69531,16.41015 4.85546,23.11328 5.6211,12.09766 16.33204,19.26172 31.28125,20.88281 14.94922,1.61719 27.73829,-2.3125 36.82813,-11.55859 8.01562,-8.01563 12.94531,-20.26563 12.17578,-30.12891 -0.53906,-7.625 -3.62109,-11.78906 -8.70703,-11.78906 h -1.92578 l -0.38672,1.62109 c -1.23047,5.00782 -4.23828,11.71094 -6.93359,15.71875 -1.84766,2.77344 -5.54688,6.16407 -7.85938,7.24219 -3.77344,1.76953 -9.01562,1.92578 -13.40625,0.46094 -14.02344,-4.85547 -21.80469,-20.80469 -21.80469,-44.45703 0,-16.79688 3.16016,-35.21485 10.71094,-62.17969 l 1.84766,-6.70313 22.26562,-0.23437 c 22.26953,-0.23047 22.26953,-0.23047 26.35156,-1.15234 6.08985,-1.46485 10.48047,-3.39063 15.56641,-6.78125 3.85156,-2.54297 9.24609,-8.08985 11.86719,-12.17578 1.23047,-1.92579 2.53906,-3.92969 2.92578,-4.46875 l 0.69531,-1 -1.62109,-1.38672 c -2.92578,-2.46875 -8.62891,-3.69922 -17.02735,-3.54688 -2.77343,-0.15234 -26.19531,-0.0742 -51.92968,0.0781 z m 0,0"
       fill-opacity="1"
       fill-rule="nonzero"
       id="path11" />
  </g>
</svg>
